<svg width="25" height="25" viewBox="0 0 25 25" fill="none" xmlns="http://www.w3.org/2000/svg">
<path d="M22.2599 18.45C23.8326 15.941 24.4265 12.9408 23.9281 10.0219C23.4297 7.10305 21.8741 4.46987 19.558 2.6249C17.2419 0.779918 14.3275 -0.147678 11.3711 0.0191524C8.41466 0.185983 5.62318 1.43555 3.52935 3.52938C1.43552 5.62321 0.185983 8.41469 0.0191529 11.3711C-0.147678 14.3275 0.779888 17.2419 2.62487 19.558C4.46984 21.8741 7.10302 23.4297 10.0219 23.9281C12.9408 24.4265 15.941 23.8327 18.4499 22.26L23.7099 23.67L22.3 18.4L22.2599 18.45ZM12.09 5.68999C12.389 5.68801 12.6819 5.77488 12.9316 5.93959C13.1812 6.10431 13.3763 6.33943 13.4921 6.61516C13.6079 6.8909 13.6393 7.19482 13.5821 7.48839C13.525 7.78196 13.382 8.05194 13.1713 8.26412C12.9605 8.4763 12.6914 8.62111 12.3982 8.68019C12.1051 8.73927 11.801 8.70995 11.5245 8.59597C11.248 8.48198 11.0115 8.28843 10.8451 8.0399C10.6788 7.79137 10.59 7.49904 10.59 7.19997C10.5925 6.80202 10.7511 6.42096 11.0315 6.13863C11.312 5.85629 11.692 5.69522 12.09 5.68999ZM14.73 18.5H9.45995V16.24H10.6V11.77H9.46996V9.50997H13.6V16.29H14.73V18.5Z" fill="#FAAD14"/>
</svg>
