<svg width="18" height="16" viewBox="0 0 18 16" fill="none" xmlns="http://www.w3.org/2000/svg">
<path d="M9.65285 10.3032L7.74785 8.42067L7.77035 8.39817C9.07535 6.94317 10.0053 5.27067 10.5528 3.50067H12.7503V2.00067H7.50035V0.500671H6.00035V2.00067H0.750347V3.49317H9.12785C8.62535 4.94067 7.83035 6.31317 6.75035 7.51317C6.05285 6.74067 5.47535 5.89317 5.01785 5.00067H3.51785C4.06535 6.22317 4.81535 7.37817 5.75285 8.42067L1.93535 12.1857L3.00035 13.2507L6.75035 9.50067L9.08285 11.8332L9.65285 10.3032ZM13.8753 6.50067H12.3753L9.00035 15.5007H10.5003L11.3403 13.2507H14.9028L15.7503 15.5007H17.2503L13.8753 6.50067ZM11.9103 11.7507L13.1253 8.50317L14.3403 11.7507H11.9103Z" fill="#595959"/>
</svg>
