<svg width="22" height="22" viewBox="0 0 22 22" fill="none" xmlns="http://www.w3.org/2000/svg">
<path d="M21.4138 9.30342C21.0251 9.17982 20.4693 9.01657 19.8396 8.87509C19.7406 8.85373 19.6465 8.81419 19.562 8.75849L19.5022 8.71807C19.3641 8.6188 19.2614 8.47798 19.2091 8.31617C19.0739 7.90181 18.9075 7.49825 18.7115 7.10894C18.6338 6.95825 18.6065 6.78656 18.6338 6.6192C18.6439 6.55934 18.6571 6.49949 18.6727 6.43963C18.6946 6.35547 18.7295 6.27522 18.7761 6.20176C19.108 5.67393 19.3755 5.1842 19.5535 4.83128C19.6343 4.6752 19.6634 4.49748 19.6365 4.32379C19.6097 4.1501 19.5284 3.98944 19.4042 3.86502L19.1912 3.65203L18.3361 2.79693L18.1238 2.58471C17.9998 2.46044 17.8396 2.37879 17.6662 2.35154C17.4928 2.32429 17.3152 2.35286 17.159 2.43313C16.7968 2.62047 16.2883 2.89954 15.7434 3.24391C15.6579 3.2981 15.5633 3.33653 15.4643 3.35741L15.3935 3.37062C15.2254 3.39786 15.053 3.37062 14.9014 3.29289C14.5117 3.0942 14.1073 2.9258 13.6918 2.78916C13.5306 2.73681 13.3905 2.63408 13.2922 2.4961C13.2572 2.44634 13.2238 2.39504 13.1927 2.34062C13.1488 2.2657 13.1168 2.1844 13.0978 2.09964C12.9595 1.49175 12.8017 0.955373 12.6812 0.577577C12.6279 0.410067 12.5227 0.263831 12.3809 0.160006C12.2391 0.0561815 12.0679 0.000146328 11.8921 1.86149e-09H10.0931C9.91765 -1.17568e-05 9.74669 0.0556847 9.60488 0.159064C9.46307 0.262444 9.35774 0.408169 9.30407 0.575244C9.18046 0.963923 9.01721 1.51973 8.87572 2.14939C8.85436 2.24832 8.81482 2.34242 8.75911 2.42691L8.71868 2.48677C8.61941 2.62484 8.47858 2.72753 8.31676 2.77983C7.90226 2.91631 7.49867 3.08391 7.10944 3.28123C6.95874 3.35899 6.78704 3.38624 6.61967 3.35896C6.55981 3.34886 6.49995 3.33564 6.44009 3.32009C6.35592 3.29815 6.27566 3.26327 6.2022 3.21671C5.67433 2.88477 5.18456 2.61736 4.83162 2.43546C4.67553 2.35466 4.4978 2.32557 4.3241 2.3524C4.1504 2.37923 3.98972 2.46059 3.8653 2.58471L3.65228 2.79771L2.79713 3.6528L2.5849 3.86502C2.46062 3.98899 2.37895 4.14924 2.35171 4.32264C2.32446 4.49605 2.35303 4.67362 2.4333 4.82972C2.62066 5.19197 2.89975 5.70036 3.24414 6.24529C3.29833 6.3308 3.33677 6.42531 3.35765 6.52436C3.36231 6.54846 3.36697 6.57178 3.37086 6.5951C3.3981 6.76322 3.37086 6.93564 3.29312 7.08717C3.09428 7.47705 2.92586 7.8817 2.78936 8.29751C2.73676 8.45833 2.63405 8.59808 2.49627 8.6963C2.44652 8.73128 2.39521 8.76471 2.34079 8.7958C2.26586 8.83971 2.18455 8.87171 2.09979 8.89064C1.49185 9.02901 0.95544 9.18681 0.577618 9.3073C0.410096 9.36056 0.26385 9.46571 0.160018 9.60754C0.0561854 9.74937 0.000146338 9.92055 1.86163e-09 10.0963V11.9037C-1.17576e-05 12.0792 0.0556886 12.2501 0.159076 12.3919C0.262463 12.5337 0.408198 12.639 0.575285 12.6927C0.963991 12.8163 1.51984 12.9795 2.14955 13.121C2.24848 13.1424 2.34258 13.1819 2.42708 13.2376L2.48694 13.278C2.62502 13.3773 2.72772 13.5181 2.78003 13.6799C2.91582 14.0957 3.08293 14.5006 3.2799 14.8911C3.35767 15.0417 3.38493 15.2134 3.35765 15.3808C3.34754 15.4407 3.33432 15.5005 3.31877 15.5604C3.29683 15.6445 3.26195 15.7248 3.21538 15.7982C2.88342 16.3261 2.61599 16.8158 2.43408 17.1687C2.35327 17.3248 2.32418 17.5025 2.35101 17.6762C2.37784 17.8499 2.4592 18.0106 2.58334 18.135L2.79635 18.348L3.65151 19.2031L3.86374 19.4153C3.98771 19.5396 4.14798 19.6212 4.32139 19.6485C4.49481 19.6757 4.6724 19.6471 4.82851 19.5669C5.19078 19.3795 5.69921 19.1005 6.24418 18.7561C6.32969 18.7019 6.42421 18.6635 6.52327 18.6426L6.59401 18.6294C6.76214 18.6021 6.93457 18.6294 7.08612 18.7071C7.47602 18.9059 7.8807 19.0743 8.29655 19.2108C8.45737 19.2634 8.59713 19.3661 8.69536 19.5039C8.73034 19.5537 8.76377 19.605 8.79487 19.6594C8.83878 19.7343 8.87078 19.8156 8.88971 19.9004C9.02809 20.5082 9.18591 21.0446 9.30641 21.4224C9.35967 21.5899 9.46482 21.7362 9.60666 21.84C9.74851 21.9438 9.91969 21.9999 10.0955 22H11.903C12.0785 22 12.2494 21.9443 12.3912 21.8409C12.533 21.7376 12.6384 21.5918 12.692 21.4248C12.8156 21.0361 12.9789 20.4803 13.1204 19.8506C13.1418 19.7517 13.1813 19.6576 13.237 19.5731L13.2774 19.5132C13.3767 19.3752 13.5175 19.2725 13.6794 19.2202C14.0951 19.0844 14.5 18.9173 14.8906 18.7203C15.0413 18.6426 15.213 18.6153 15.3803 18.6426C15.4402 18.6527 15.5001 18.6659 15.5599 18.6815C15.6441 18.7034 15.7243 18.7383 15.7978 18.7848C16.3257 19.1168 16.8154 19.3842 17.1684 19.5622C17.3245 19.643 17.5022 19.6721 17.6759 19.6453C17.8496 19.6184 18.0103 19.5371 18.1347 19.413L18.3477 19.2L19.2029 18.3449L19.4151 18.1326C19.5394 18.0087 19.621 17.8484 19.6483 17.675C19.6755 17.5016 19.647 17.324 19.5667 17.1679C19.3793 16.8057 19.1002 16.2973 18.7559 15.7524C18.7017 15.6669 18.6632 15.5724 18.6424 15.4733C18.6377 15.4492 18.633 15.4259 18.6291 15.4026C18.6019 15.2344 18.6291 15.062 18.7069 14.9105C18.9057 14.5206 19.0741 14.116 19.2106 13.7002C19.2632 13.5393 19.3659 13.3996 19.5037 13.3014C19.5535 13.2664 19.6048 13.233 19.6592 13.2019C19.7341 13.158 19.8154 13.126 19.9002 13.107C20.5081 12.9687 21.0446 12.8109 21.4224 12.6904C21.5899 12.6371 21.7361 12.532 21.84 12.3901C21.9438 12.2483 21.9999 12.0771 22 11.9013V10.0924C21.9993 9.91559 21.942 9.74361 21.8365 9.60164C21.7311 9.45968 21.5829 9.35518 21.4138 9.30342ZM10.9965 15.9887C10.0085 15.9887 9.04277 15.6957 8.22133 15.1469C7.3999 14.598 6.75969 13.8179 6.38169 12.9051C6.00368 11.9924 5.90486 10.9881 6.09771 10.0192C6.29057 9.05033 6.76644 8.16039 7.46514 7.46196C8.16384 6.76352 9.05399 6.28796 10.023 6.09543C10.992 5.90289 11.9964 6.00202 12.909 6.38028C13.8217 6.75854 14.6017 7.39894 15.1503 8.22049C15.699 9.04204 15.9917 10.0078 15.9914 10.9957C15.9912 12.3203 15.4649 13.5905 14.5282 14.5272C13.5915 15.4638 12.3212 15.99 10.9965 15.9902V15.9887Z" fill="#595959"/>
</svg>
